<?xml version="1.0" standalone="no"?><!DOCTYPE svg PUBLIC "-//W3C//DTD SVG 1.1//EN" "http://www.w3.org/Graphics/SVG/1.1/DTD/svg11.dtd"><svg t="1607939998339" class="icon" viewBox="0 0 1024 1024" version="1.1" xmlns="http://www.w3.org/2000/svg" p-id="4658" xmlns:xlink="http://www.w3.org/1999/xlink" width="200" height="200"><defs><style type="text/css"></style></defs><path d="M802.6112 1022.5664H141.5168c-66.3552 0-120.2176-53.8624-120.2176-120.2176V120.832C21.2992 54.4768 75.1616 0.6144 141.5168 0.6144H802.816c31.9488 0 62.464 12.6976 84.992 35.2256s35.2256 53.0432 35.2256 84.992v270.5408c0.4096 11.0592-5.12 21.504-14.7456 27.0336-9.4208 5.7344-21.2992 5.7344-30.72 0s-15.1552-15.9744-14.7456-27.0336V121.4464c0-33.1776-27.0336-60.2112-60.2112-60.2112H141.5168c-33.1776 0-60.0064 27.0336-60.0064 60.2112v781.5168c0 33.1776 26.8288 60.0064 60.0064 60.0064H802.816c33.1776 0 60.0064-26.8288 60.0064-60.0064v-90.7264c-0.4096-11.0592 5.12-21.504 14.7456-27.0336 9.4208-5.7344 21.2992-5.7344 30.72 0s15.1552 15.9744 14.7456 27.0336v89.4976c0.2048 31.9488-12.4928 62.6688-35.0208 85.4016-22.528 22.528-53.248 35.4304-85.4016 35.4304z m0 0" p-id="4659"></path><path d="M743.2192 271.1552H202.1376c-11.0592 0.4096-21.504-5.12-27.0336-14.7456-5.7344-9.4208-5.7344-21.2992 0-30.72s15.9744-15.1552 27.0336-14.7456h541.0816c11.0592-0.4096 21.504 5.12 27.0336 14.7456 5.7344 9.4208 5.7344 21.2992 0 30.72-5.5296 9.6256-15.9744 15.1552-27.0336 14.7456z m-60.2112 240.4352H202.3424c-11.0592 0.4096-21.504-5.12-27.0336-14.7456-5.7344-9.4208-5.7344-21.2992 0-30.72s15.9744-15.1552 27.0336-14.7456h480.8704c16.1792 0.6144 28.8768 13.9264 28.8768 30.1056-0.2048 16.1792-12.9024 29.4912-29.0816 30.1056zM442.5728 752.0256H202.1376c-16.5888 0-30.1056-13.5168-30.1056-30.1056s13.5168-30.1056 30.1056-30.1056h240.4352c16.5888 0 30.1056 13.5168 30.1056 30.1056s-13.312 30.1056-30.1056 30.1056z m559.104-205.0048c-1.2288-6.144-2.8672-12.288-5.3248-18.0224-6.144-13.312-14.1312-25.8048-23.9616-36.6592-8.8064-10.24-19.456-19.0464-31.3344-25.8048-12.288-6.5536-25.8048-10.24-39.7312-10.8544h-3.072c-18.2272 0-35.84 6.5536-49.7664 18.0224l-13.7216 12.4928-12.0832 11.4688-3.4816 2.8672-30.72 27.648-92.16 95.232-34.816 36.0448-31.3344 32.5632-23.9616 25.1904-10.24 10.8544c-5.3248 5.5296-10.24 11.4688-14.336 18.0224-3.2768 5.12-6.144 10.6496-8.3968 16.1792-3.072 6.3488-5.7344 13.1072-7.7824 19.8656l-7.168 24.576-7.168 24.576c-2.2528 7.7824-4.096 15.9744-5.3248 23.9616-3.8912 17.2032 0.2048 35.2256 10.8544 49.3568 10.6496 13.1072 27.0336 20.48 43.8272 19.8656h7.7824l21.0944-4.7104 26.4192-7.7824 25.8048-9.0112 21.0944-9.0112c7.168-3.2768 13.7216-7.168 19.8656-12.0832l11.4688-9.6256 13.1072-13.1072 22.9376-23.9616 30.1056-31.3344 34.2016-35.4304 91.9552-95.0272 29.4912-30.72 8.3968-8.3968 6.5536-6.5536 9.6256-10.24c6.5536-7.3728 11.6736-15.9744 14.9504-25.1904 3.072-8.6016 4.7104-17.8176 4.7104-27.0336 1.024-6.144 1.6384-12.0832 1.6384-18.2272z m-195.9936 193.536L771.4816 776.192l-30.72 31.9488-22.7328 23.3472-10.8544 10.8544-9.6256 8.3968c-3.4816 2.8672-7.3728 5.3248-11.4688 7.168l-17.408 7.168-24.1664 8.3968L620.544 880.64l-16.7936 4.3008h-4.7104c-3.8912 0.4096-7.9872-0.8192-10.8544-3.4816-2.048-5.12-2.048-11.0592 0-16.1792 1.024-6.144 2.4576-12.0832 4.096-18.0224l6.5536-23.9616 7.168-23.552c1.4336-4.9152 3.2768-9.8304 5.5296-14.336 3.4816-8.3968 8.6016-16.1792 14.9504-22.9376l12.0832-12.4928 23.552-24.576 31.3344-32.5632 34.816-36.0448 91.9552-95.0272 79.872 82.944-94.4128 95.8464z m154.0096-161.5872c-1.4336 3.8912-3.6864 7.5776-6.5536 10.8544l-9.0112 9.0112-7.168 7.168-6.5536 5.9392-81.7152-82.3296 12.0832-12.0832 12.0832-10.8544c3.6864-3.072 7.9872-5.3248 12.6976-6.5536h23.3472l10.24 4.3008c7.3728 4.5056 14.1312 10.24 19.8656 16.7936 6.7584 7.3728 12.4928 15.9744 16.7936 25.1904 0.2048 3.072 0.2048 5.9392 0 9.0112 0.4096 3.4816 0.4096 7.168 0 10.8544 1.8432 3.8912 3.2768 8.192 3.8912 12.6976z m0 0" p-id="4660"></path></svg>