<?xml version="1.0" standalone="no"?>
<!DOCTYPE svg PUBLIC "-//W3C//DTD SVG 1.1//EN" "http://www.w3.org/Graphics/SVG/1.1/DTD/svg11.dtd">
<svg t="1607933027531" class="icon" viewBox="0 0 1024 1024" version="1.1" 
xmlns="http://www.w3.org/2000/svg" p-id="811" xmlns:xlink="http://www.w3.org/1999/xlink"
 width="400" height="400"><defs><style type="text/css"></style></defs><path d="M785.066667 520.533333H238.933333c-14.08 0-25.6-11.52-25.6-25.6s11.52-25.6 25.6-25.6h546.133334c14.08 0 25.6 11.52 25.6 25.6s-11.52 25.6-25.6 25.6zM785.066667 282.965333H238.933333c-14.08 0-25.6-11.52-25.6-25.6s11.52-25.6 25.6-25.6h546.133334c14.08 0 25.6 11.52 25.6 25.6s-11.52 25.6-25.6 25.6zM785.066667 758.101333H238.933333c-14.08 0-25.6-11.52-25.6-25.6s11.52-25.6 25.6-25.6h546.133334c14.08 0 25.6 11.52 25.6 25.6s-11.52 25.6-25.6 25.6z" p-id="812" data-spm-anchor-id="a313x.7781069.0.i0" class="selected" fill="#ffffff"></path></svg>