<?xml version="1.0" standalone="no"?><!DOCTYPE svg PUBLIC "-//W3C//DTD SVG 1.1//EN" "http://www.w3.org/Graphics/SVG/1.1/DTD/svg11.dtd"><svg t="1609923338508" class="icon" viewBox="0 0 1024 1024" version="1.1" xmlns="http://www.w3.org/2000/svg" p-id="7342" xmlns:xlink="http://www.w3.org/1999/xlink" width="200" height="200"><defs><style type="text/css"></style></defs><path d="M459.044 939.52H284.61c-12.75 0-154.051 6.205-154.051-5.494V167.404c0-11.377-8.12-62.444 9.144-62.444h666.174c9.723 0 17.526-1.613 17.526 10.501v294.083c0 33.019 51.2 33.019 51.2 0v-281.79c0-32.737-7.824-61.435-43.326-72.458-11.228-3.487-26.47-1.536-38-1.536H135.884c-59.674 0-56.525 59.141-56.525 100.562v777.431c0 69.847 76.948 58.967 124.032 58.967h255.652c33.019 0 33.019-51.2 0-51.2z" p-id="7343" fill="#A0A0A0"></path><path d="M965.381 752.645c-1.725 108.795-88.325 195.395-197.12 197.12-108.805 1.726-195.435-90.926-197.12-197.12-1.725-108.805 90.931-195.425 197.12-197.11 108.8-1.73 195.436 90.916 197.12 197.11 0.527 32.983 51.727 33.034 51.2 0-1.864-117.489-83.533-219.243-199.188-243.359-114.77-23.951-233.764 40.55-278.36 148.301-45.726 110.47-4.525 235.167 92.483 302.316 97.485 67.481 232.786 47.851 314.69-34.053 45.681-45.681 69.366-109.251 70.38-173.2 0.517-33.04-50.683-32.988-51.205-0.005z" p-id="7344" fill="#A0A0A0"></path><path d="M661.432 682.02l177.46 177.459c23.362 23.368 59.57-12.836 36.198-36.198a2899484.698 2899484.698 0 0 0-177.46-177.46c-23.367-23.372-59.57 12.836-36.198 36.199z" p-id="7345" fill="#A0A0A0"></path><path d="M838.892 645.821a2899484.698 2899484.698 0 0 0-177.46 177.46c-23.367 23.362 12.836 59.57 36.199 36.198l177.459-177.46c23.368-23.362-12.836-59.57-36.198-36.198zM226.99 311.491h511.155c33.014 0 33.014-51.2 0-51.2H226.99c-33.014 0-33.014 51.2 0 51.2z m0 225.285H512c33.014 0 33.014-51.205 0-51.205H226.99c-33.014 0-33.014 51.205 0 51.205z m0 209.351H395.9c33.019 0 33.019-51.2 0-51.2H226.99c-33.014 0-33.014 51.2 0 51.2z" p-id="7346" fill="#A0A0A0"></path></svg>