<?xml version="1.0" standalone="no"?><!DOCTYPE svg PUBLIC "-//W3C//DTD SVG 1.1//EN" "http://www.w3.org/Graphics/SVG/1.1/DTD/svg11.dtd"><svg t="1609923423972" class="icon" viewBox="0 0 1024 1024" version="1.1" xmlns="http://www.w3.org/2000/svg" p-id="9868" xmlns:xlink="http://www.w3.org/1999/xlink" width="200" height="200"><defs><style type="text/css"></style></defs><path d="M512 966.4C249.6 966.4 32 748.8 32 486.4S249.6 6.4 512 6.4s480 217.6 480 480-217.6 480-480 480z m0-896C281.6 70.4 96 256 96 486.4s185.6 416 416 416 416-185.6 416-416S742.4 70.4 512 70.4z" fill="#A0A0A0" p-id="9869"></path><path d="M780.8 531.2c-19.2 0-32-12.8-32-32 0-140.8-115.2-256-256-256-19.2 0-32-12.8-32-32s12.8-32 32-32c179.2 0 320 147.2 320 320 0 19.2-12.8 32-32 32zM915.2 1011.2l-140.8-140.8c-12.8-12.8-12.8-32 0-44.8l6.4-6.4c12.8-12.8 32-12.8 44.8 0l140.8 140.8c12.8 12.8 12.8 32 0 44.8l-6.4 6.4c-12.8 12.8-32 12.8-44.8 0z" fill="#A0A0A0" p-id="9870"></path></svg>