<?xml version="1.0" standalone="no"?><!DOCTYPE svg PUBLIC "-//W3C//DTD SVG 1.1//EN" "http://www.w3.org/Graphics/SVG/1.1/DTD/svg11.dtd"><svg t="1609923023459" class="icon" viewBox="0 0 1024 1024" version="1.1" xmlns="http://www.w3.org/2000/svg" p-id="6681" xmlns:xlink="http://www.w3.org/1999/xlink" width="200" height="200"><defs><style type="text/css"></style></defs><path d="M512.852414 776.268826c-55.320956 0-112.681362-11.32493-170.486906-33.662681-45.814442-17.703197-92.022857-42.333154-137.344065-73.207325C128.071887 616.977913 80.637552 565.105498 78.655408 562.922786l-12.490475-13.757329L78.655408 535.407106c1.982144-2.182712 49.41648-54.055127 126.365013-106.476033 45.321208-30.874171 91.529623-55.505152 137.343041-73.208349 57.806567-22.337751 115.166973-33.662681 170.487929-33.662681 55.32198 0 112.681362 11.325953 170.486906 33.662681 45.814442 17.703197 92.022857 42.333154 137.344065 73.208349 76.948533 52.420907 124.383892 104.293321 126.365013 106.476033l12.490475 13.757329-12.490475 13.757329c-1.982144 2.182712-49.41648 54.055127-126.365013 106.476033-45.321208 30.874171-91.529623 55.504128-137.344065 73.207325C625.533776 764.943896 568.17337 776.268826 512.852414 776.268826zM122.429377 549.164435c18.801205 18.46863 56.323796 52.908 106.476033 86.974887 66.620303 45.25367 169.960926 99.197256 283.947004 99.197256 114.335025 0 217.9765-54.254671 284.786115-99.767238 49.879014-33.978882 86.998423-68.061119 105.646132-86.395696-18.802228-18.470677-56.32789-52.91414-106.485243-86.984097-66.621327-45.25367-169.96195-99.197256-283.947004-99.197256-113.986077 0-217.3267 53.943586-283.947004 99.197256C178.756243 496.253364 141.234675 530.692734 122.429377 549.164435z" p-id="6682" fill="#A0A0A0"></path><path d="M512.852414 697.688119c-81.724303 0-148.211577-66.626443-148.211577-148.523685s66.487274-148.523685 148.211577-148.523685c81.724303 0 148.211577 66.627467 148.211577 148.523685S594.576717 697.688119 512.852414 697.688119zM512.852414 441.572998c-59.154261 0-107.279329 48.26526-107.279329 107.591437 0 59.326177 48.125067 107.591437 107.279329 107.591437s107.279329-48.26526 107.279329-107.591437C620.131743 489.838258 572.005652 441.572998 512.852414 441.572998z" p-id="6683" fill="#A0A0A0"></path></svg>