<?xml version="1.0" standalone="no"?><!DOCTYPE svg PUBLIC "-//W3C//DTD SVG 1.1//EN" "http://www.w3.org/Graphics/SVG/1.1/DTD/svg11.dtd"><svg t="1609923355812" class="icon" viewBox="0 0 1024 1024" version="1.1" xmlns="http://www.w3.org/2000/svg" p-id="7535" xmlns:xlink="http://www.w3.org/1999/xlink" width="200" height="200"><defs><style type="text/css"></style></defs><path d="M870.4 812.8H153.6c-12.8 0-25.6 12.8-25.6 25.6s12.8 25.6 25.6 25.6h716.8c12.8 0 25.6-12.8 25.6-25.6s-12.8-25.6-25.6-25.6zM236.8 787.2l140.8-25.6c6.4 0 12.8-6.4 12.8-6.4l339.2-364.8 70.4-76.8c6.4-6.4 6.4-12.8 6.4-19.2 0-6.4-6.4-12.8-6.4-19.2l-115.2-108.8c-12.8-12.8-25.6-6.4-38.4 0L249.6 595.2c-6.4 6.4-6.4 6.4-6.4 12.8l-32 147.2c0 6.4 0 19.2 6.4 25.6 6.4 0 12.8 6.4 19.2 6.4z m364.8-492.8l76.8 76.8-249.6 262.4-76.8-76.8 249.6-262.4z m70.4-76.8l76.8 70.4-32 38.4L633.6 256l38.4-38.4z m-384 409.6l32-32 76.8 76.8-38.4 38.4-89.6 12.8 19.2-96z" fill="#A0A0A0" p-id="7536"></path></svg>